<svg xmlns="http://www.w3.org/2000/svg" xmlns:xlink="http://www.w3.org/1999/xlink" version="1.1" x="0px" y="0px" viewBox="0 0 100 100" enable-background="new 0 0 100 100" xml:space="preserve"><g><path fill="white" d="M60.936,41.745v-4.581c2.7-0.993,4.635-3.583,4.635-6.624c0-1.479-0.475-2.909-1.321-4.093   c0.848-1.184,1.322-2.615,1.322-4.094c0-0.382-0.031-0.761-0.093-1.135c1.641-1.322,2.637-3.334,2.637-5.49   c0-3.894-3.168-7.063-7.063-7.063c-0.689,0-1.368,0.102-2.017,0.297c-1.098-2.479-3.582-4.214-6.463-4.214   c-3.894,0-7.063,3.168-7.063,7.063c0,0.055,0.012,0.108,0.013,0.163h-6.439c-1.104,0-2,0.896-2,2v20.241   c-3.637,0.283-6.512,3.326-6.512,7.035c0,2.727,1.557,5.093,3.825,6.27C28.951,59.24,18.867,81.338,18.669,84.717   c-0.137,2.34,0.612,4.503,2.109,6.091c1.514,1.604,3.71,2.525,6.027,2.525h45.637c4.412,0,8.14-3.892,8.14-8.499   C80.582,81.387,67.017,53.895,60.936,41.745z M49.511,11.812c0-1.688,1.374-3.063,3.063-3.063c1.661,0,3.018,1.33,3.062,2.98   c-0.008,0.07-0.017,0.157-0.019,0.198c-0.001,0.016,0.005,0.031,0.005,0.046c-0.023,0.796,0.423,1.532,1.146,1.87   c0.736,0.344,1.61,0.208,2.208-0.348c0.431-0.401,0.952-0.667,1.507-0.775c0.188-0.037,0.378-0.056,0.57-0.056   c1.688,0,3.063,1.374,3.063,3.063c0,1.19-0.707,2.281-1.801,2.78c-0.994,0.453-1.441,1.62-1.003,2.622   c0.172,0.395,0.26,0.806,0.26,1.224c0,0.677-0.234,1.307-0.636,1.83c-0.183,0.237-0.389,0.459-0.643,0.643   c-0.52,0.376-0.828,0.979-0.828,1.62s0.308,1.244,0.827,1.621c0.254,0.184,0.461,0.407,0.644,0.645v3.674   c-0.56,0.734-1.435,1.217-2.427,1.217c-0.577,0-1.112-0.17-1.573-0.449c-0.889-0.537-1.489-1.502-1.489-2.614   c0-0.984,0.466-1.886,1.278-2.474c0.078-0.057,0.143-0.128,0.211-0.195c0.385-0.374,0.616-0.881,0.616-1.425   c0-0.544-0.231-1.051-0.616-1.425c-0.068-0.067-0.133-0.138-0.211-0.195c-0.625-0.453-1.055-1.105-1.209-1.837   c-0.144-0.678-0.627-1.234-1.278-1.469c-0.221-0.08-0.45-0.119-0.679-0.119c-0.444,0-0.884,0.148-1.243,0.433   c-0.39,0.31-1.035,0.679-1.888,0.679c-1.688,0-3.063-1.374-3.063-3.063c0-1.24,0.742-2.35,1.89-2.828   c0.333-0.138,0.609-0.37,0.821-0.651c0.147-0.196,0.269-0.413,0.337-0.655c0.166-0.589,0.052-1.223-0.309-1.718   c-0.355-0.488-0.548-1.048-0.581-1.627C49.521,11.92,49.511,11.867,49.511,11.812z M34.573,41.25c0-1.5,1.086-2.746,2.512-3.007   c0.179-0.033,0.362-0.056,0.55-0.056c1.688,0,3.062,1.374,3.062,3.063s-1.374,3.063-3.062,3.063c-0.564,0-1.086-0.164-1.541-0.431   C35.189,43.349,34.573,42.375,34.573,41.25z M72.442,89.333H26.806c-1.22,0-2.355-0.463-3.117-1.27   c-0.745-0.789-1.1-1.866-1.027-3.103c0.228-2.35,7.92-19.774,15.803-36.702c3.503-0.413,6.232-3.396,6.232-7.009   c0-2.641-1.459-4.945-3.612-6.156V15.975h3.203c-0.588,1.039-0.922,2.228-0.922,3.479c0,3.894,3.168,7.063,7.063,7.063   c0.738,0,1.46-0.116,2.149-0.341c0.061,0.093,0.123,0.186,0.188,0.276c-0.846,1.184-1.319,2.613-1.319,4.09   c0,3.353,2.351,6.162,5.489,6.88v4.797c0,0.311,0.072,0.618,0.212,0.896c9.183,18.334,19.116,39.216,19.435,41.721   C76.582,87.23,74.647,89.333,72.442,89.333z"></path><path fill="white" d="M42.417,49.23c-0.796,0-1.517,0.472-1.834,1.203L27.394,80.772c-0.314,0.666-1.269,2.692-0.21,4.361   c1.087,1.714,3.365,1.718,5.033,1.718c0.004,0,0.009,0,0.013,0l33.372-0.006c3.256,0,5.478-0.342,6.496-2.041   c1.009-1.683,0.025-3.52-0.297-4.123c-1.512-2.825-13.939-30.008-14.064-30.283c-0.326-0.712-1.036-1.168-1.819-1.168H42.417z"></path></g></svg>